<svg width="61" height="64" viewBox="0 0 61 64" fill="none" xmlns="http://www.w3.org/2000/svg">
<path d="M40.667 8H2.54199V42.6667H40.667V8Z" stroke="#B3B3B3" stroke-width="3" stroke-linecap="round" stroke-linejoin="round"/>
<path d="M40.667 21.3333H50.8337L58.4587 29.3333V42.6666H40.667V21.3333Z" stroke="#B3B3B3" stroke-width="3" stroke-linecap="round" stroke-linejoin="round"/>
<path d="M13.9792 56.0001C17.4885 56.0001 20.3333 53.0153 20.3333 49.3334C20.3333 45.6515 17.4885 42.6667 13.9792 42.6667C10.4699 42.6667 7.625 45.6515 7.625 49.3334C7.625 53.0153 10.4699 56.0001 13.9792 56.0001Z" stroke="#B3B3B3" stroke-width="3" stroke-linecap="round" stroke-linejoin="round"/>
<path d="M47.0212 56.0001C50.5305 56.0001 53.3753 53.0153 53.3753 49.3334C53.3753 45.6515 50.5305 42.6667 47.0212 42.6667C43.5118 42.6667 40.667 45.6515 40.667 49.3334C40.667 53.0153 43.5118 56.0001 47.0212 56.0001Z" stroke="#B3B3B3" stroke-width="3" stroke-linecap="round" stroke-linejoin="round"/>
</svg>
