<svg width="1644" height="274" viewBox="0 0 1644 274" fill="none" xmlns="http://www.w3.org/2000/svg">
<path d="M846.536 273.136C841.805 273.702 837.007 273.996 832.146 274L832.144 270.998C836.886 270.994 841.566 270.708 846.181 270.156L846.536 273.136ZM804.28 267.82C808.945 268.882 813.559 269.67 818.12 270.195L817.778 273.176C813.106 272.638 808.384 271.833 803.614 270.747L804.28 267.82ZM874.498 266.446C869.979 268.081 865.382 269.469 860.709 270.591L860.009 267.672C864.57 266.577 869.061 265.222 873.477 263.623L874.498 266.446ZM777.603 258.883C782.02 260.834 786.4 262.536 790.739 263.997L789.782 266.841C785.354 265.35 780.89 263.616 776.392 261.628L777.603 258.883ZM900.363 253.956C896.24 256.465 892.032 258.766 887.744 260.845L886.437 258.143C890.636 256.108 894.76 253.852 898.804 251.391L900.363 253.956ZM752.785 245.46C756.865 248.07 760.917 250.464 764.941 252.649L763.511 255.287C759.422 253.067 755.307 250.636 751.17 247.989L752.785 245.46ZM91.2302 252.024C86.4147 252.435 81.6826 252.637 77.0338 252.669L77.0123 249.667C81.5887 249.635 86.2435 249.437 90.9763 249.033L91.2302 252.024ZM49.0785 248.004C53.6413 248.541 58.2915 248.979 63.0298 249.272L62.8453 252.268C58.0436 251.972 53.3374 251.528 48.728 250.985L49.0785 248.004ZM119.218 247.247C114.523 248.467 109.897 249.452 105.341 250.228L104.837 247.268C109.311 246.506 113.854 245.54 118.464 244.342L119.218 247.247ZM21.3087 243.722C25.833 244.523 30.4544 245.325 35.178 246.07L34.7113 249.035C29.9595 248.286 25.3165 247.479 20.7873 246.678L21.3087 243.722ZM923.533 237.009C919.875 240.158 916.131 243.143 912.306 245.95L910.532 243.529C914.292 240.77 917.975 237.833 921.577 234.733L923.533 237.009ZM0.45105 240.158C2.74609 240.507 5.07042 240.887 7.42279 241.284L6.92293 244.244C4.5819 243.848 2.27463 243.472 0 243.125L0.45105 240.158ZM146.014 237.84C141.561 239.819 137.162 241.562 132.819 243.09L131.825 240.258C136.092 238.757 140.416 237.044 144.797 235.097L146.014 237.84ZM729.976 228.78C733.716 231.858 737.437 234.751 741.137 237.464L739.365 239.885C735.618 237.138 731.853 234.211 728.071 231.099L729.976 228.78ZM171.022 224.466C166.899 227.049 162.818 229.416 158.781 231.581L157.365 228.935C161.341 226.802 165.363 224.469 169.431 221.922L171.022 224.466ZM1495.2 228.188C1499.87 228.46 1504.47 228.485 1509.01 228.284L1509.14 231.282C1504.5 231.488 1499.8 231.463 1495.03 231.185L1495.2 228.188ZM1537.02 227.224C1532.49 228.345 1527.87 229.261 1523.17 229.948L1522.74 226.977C1527.34 226.305 1531.86 225.408 1536.3 224.311L1537.02 227.224ZM1467.99 223.825C1472.53 225.02 1477.02 225.967 1481.47 226.683L1480.99 229.647C1476.45 228.915 1471.86 227.948 1467.22 226.728L1467.99 223.825ZM943.911 216.853C940.712 220.456 937.426 223.933 934.059 227.271L931.948 225.139C935.268 221.848 938.51 218.416 941.669 214.859L943.911 216.853ZM1563.62 218.005C1559.36 219.913 1554.99 221.658 1550.52 223.211L1549.54 220.376C1553.92 218.852 1558.21 217.139 1562.4 215.265L1563.62 218.005ZM1442.01 214.378C1446.31 216.378 1450.57 218.143 1454.8 219.687L1453.78 222.507C1449.47 220.933 1445.12 219.136 1440.75 217.1L1442.01 214.378ZM708.966 209.699C712.414 213.125 715.848 216.392 719.267 219.503L717.249 221.724C713.796 218.583 710.33 215.285 706.852 211.829L708.966 209.699ZM194.142 207.984C190.331 211.032 186.555 213.888 182.813 216.562L181.07 214.119C184.767 211.478 188.5 208.655 192.269 205.639L194.142 207.984ZM1588.32 204.51C1584.41 207.046 1580.38 209.465 1576.23 211.739L1574.79 209.105C1578.87 206.869 1582.84 204.489 1586.68 201.992L1588.32 204.51ZM1417.86 200.783C1421.82 203.405 1425.76 205.817 1429.68 208.029L1428.21 210.643C1424.23 208.396 1420.23 205.947 1416.21 203.287L1417.86 200.783ZM961.682 194.364C958.91 198.293 956.052 202.128 953.111 205.855L950.757 203.995C953.664 200.311 956.489 196.519 959.231 192.633L961.682 194.364ZM689.666 188.977C692.812 192.607 695.948 196.102 699.074 199.464L696.879 201.509C693.728 198.121 690.568 194.599 687.4 190.943L689.666 188.977ZM215.395 189.258C211.902 192.619 208.436 195.814 204.998 198.849L203.014 196.598C206.419 193.592 209.854 190.427 213.316 187.094L215.395 189.258ZM1610.78 187.591C1607.28 190.613 1603.63 193.572 1599.84 196.436L1598.03 194.039C1601.77 191.217 1605.37 188.3 1608.82 185.319L1610.78 187.591ZM1395.73 184.05C1399.35 187.134 1402.96 190.035 1406.55 192.759L1404.74 195.152C1401.1 192.393 1397.45 189.457 1393.78 186.336L1395.73 184.05ZM977.01 170.192C974.639 174.354 972.181 178.448 969.638 182.462L967.104 180.854C969.621 176.881 972.056 172.827 974.405 168.705L977.01 170.192ZM671.681 166.861C674.645 170.732 677.601 174.48 680.55 178.109L678.223 180.003C675.255 176.351 672.282 172.579 669.301 168.686L671.681 166.861ZM235.043 168.859C231.806 172.465 228.593 175.924 225.401 179.242L223.24 177.161C226.408 173.868 229.598 170.434 232.812 166.853L235.043 168.859ZM1630.81 167.858C1627.78 171.262 1624.54 174.671 1621.12 178.043L1619.02 175.904C1622.39 172.578 1625.58 169.217 1628.57 165.861L1630.81 167.858ZM1375.56 165.057C1378.86 168.461 1382.14 171.705 1385.42 174.796L1383.36 176.98C1380.05 173.857 1376.73 170.58 1373.41 167.144L1375.56 165.057ZM253.246 147.297C250.25 151.057 247.272 154.69 244.313 158.199L242.02 156.264C244.961 152.776 247.922 149.165 250.901 145.425L253.246 147.297ZM990.114 144.948C989.059 147.021 988.025 149.101 987.012 151.189C985.969 153.338 984.903 155.476 983.816 157.599L981.147 156.229C982.225 154.125 983.281 152.007 984.314 149.877C985.335 147.773 986.377 145.676 987.441 143.585L990.114 144.948ZM655.001 143.991C656.353 145.872 657.701 147.765 659.045 149.667C660.454 151.661 661.861 153.626 663.267 155.564L660.84 157.327C659.427 155.379 658.012 153.403 656.597 151.4C655.257 149.504 653.914 147.618 652.566 145.744L655.001 143.991ZM1644 151.407C1642.67 153.269 1641.27 155.154 1639.8 157.053L1637.42 155.214C1638.87 153.344 1640.25 151.49 1641.56 149.659L1644 151.407ZM1356.78 144.128C1358.34 145.916 1359.91 147.725 1361.48 149.557C1363.03 151.37 1364.58 153.147 1366.13 154.888L1363.89 156.885C1362.33 155.13 1360.77 153.338 1359.2 151.51C1357.64 149.685 1356.08 147.882 1354.53 146.102L1356.78 144.128ZM270.414 124.738C269.009 126.602 267.601 128.489 266.191 130.4C264.754 132.348 263.321 134.265 261.892 136.154L259.501 134.343C260.922 132.463 262.348 130.555 263.778 128.617C265.194 126.697 266.608 124.801 268.02 122.93L270.414 124.738ZM1337.9 123.331C1341.08 126.683 1344.27 130.126 1347.47 133.662L1345.25 135.679C1342.06 132.159 1338.88 128.732 1335.73 125.396L1337.9 123.331ZM638.411 121.751C641.226 125.38 644.024 129.062 646.805 132.792L644.402 134.587C641.631 130.871 638.844 127.205 636.042 123.592L638.411 121.751ZM1003.73 120.599C1001.3 124.559 998.949 128.575 996.68 132.635L994.063 131.169C996.351 127.075 998.722 123.023 1001.18 119.027L1003.73 120.599ZM1318.13 103.384C1321.47 106.594 1324.83 109.908 1328.22 113.325L1326.09 115.438C1322.72 112.038 1319.37 108.743 1316.05 105.55L1318.13 103.384ZM287.572 103.036C284.664 106.536 281.747 110.138 278.82 113.844L276.467 111.983C279.409 108.258 282.341 104.637 285.265 101.117L287.572 103.036ZM620.902 100.157C623.88 103.661 626.839 107.231 629.78 110.861L627.45 112.752C624.523 109.139 621.579 105.587 618.618 102.101L620.902 100.157ZM1019.37 97.5339C1016.6 101.239 1013.9 105.027 1011.29 108.883L1008.81 107.199C1011.45 103.304 1014.17 99.4777 1016.97 95.7331L1019.37 97.5339ZM1297.38 84.5282C1300.88 87.5258 1304.4 90.6383 1307.95 93.8667L1305.93 96.0878C1302.4 92.8789 1298.9 89.7865 1295.43 86.8089L1297.38 84.5282ZM305.768 82.3101C302.676 85.6303 299.573 89.0657 296.459 92.6179L294.204 90.6383C297.338 87.0642 300.462 83.6068 303.574 80.264L305.768 82.3101ZM602.346 79.4491C605.505 82.7801 608.645 86.1909 611.765 89.6758L609.531 91.6789C606.43 88.2145 603.309 84.8249 600.17 81.5157L602.346 79.4491ZM1037.23 76.1649C1034.08 79.5368 1031 83.0207 1028.01 86.6027L1025.71 84.6787C1028.74 81.0547 1031.85 77.5282 1035.04 74.1129L1037.23 76.1649ZM1275.48 67.0062C1279.14 69.7232 1282.82 72.5667 1286.53 75.5395L1284.66 77.8827C1280.97 74.932 1277.32 72.1105 1273.69 69.4158L1275.48 67.0062ZM325.193 62.8006C321.927 65.853 318.647 69.0339 315.354 72.3443L313.229 70.2259C316.547 66.8905 319.853 63.685 323.147 60.6069L325.193 62.8006ZM582.562 59.9122C585.936 63.0174 589.29 66.2197 592.621 69.5135L590.513 71.6496C587.206 68.3798 583.879 65.2023 580.532 62.1225L582.562 59.9122ZM1057.48 57.1225C1053.92 60.0436 1050.44 63.1096 1047.05 66.3056L1044.99 64.1197C1048.43 60.8784 1051.96 57.7667 1055.58 54.7998L1057.48 57.1225ZM1252.17 51.1267C1256.09 53.5455 1260.03 56.1113 1264.01 58.8285L1262.32 61.3085C1258.38 58.616 1254.47 56.0743 1250.6 53.68L1252.17 51.1267ZM346.164 44.792C342.617 47.5689 339.054 50.495 335.475 53.5745L333.519 51.2987C337.132 48.1901 340.732 45.2338 344.316 42.4273L346.164 44.792ZM561.331 41.9309C564.959 44.7359 568.563 47.6601 572.142 50.6968L570.203 52.9872C566.657 49.9784 563.088 47.0823 559.498 44.3063L561.331 41.9309ZM1080.22 41.2479C1076.24 43.5672 1072.35 46.0659 1068.54 48.7289L1066.82 46.2684C1070.69 43.5597 1074.66 41.0163 1078.71 38.6536L1080.22 41.2479ZM1227.55 37.5836C1231.67 39.5623 1235.83 41.7074 1240.03 44.0239L1238.58 46.6534C1234.43 44.3631 1230.32 42.244 1226.25 40.2903L1227.55 37.5836ZM368.674 29.0063C364.875 31.3593 361.056 33.8826 357.218 36.5801L355.494 34.1236C359.378 31.3938 363.246 28.8387 367.096 26.454L368.674 29.0063ZM538.435 26.0661C542.352 28.4637 546.241 31.0073 550.103 33.6897L548.393 36.156C544.576 33.5048 540.735 30.9924 536.87 28.6262L538.435 26.0661ZM1105.31 29.5476C1100.95 31.0957 1096.68 32.8545 1092.5 34.8095L1091.23 32.0902C1095.5 30.0956 1099.86 28.3 1104.31 26.7188L1105.31 29.5476ZM1201.48 27.0491C1205.83 28.4707 1210.24 30.0818 1214.7 31.8898L1213.57 34.6718C1209.18 32.8892 1204.84 31.3017 1200.55 29.9024L1201.48 27.0491ZM1174.05 20.431C1178.61 21.1331 1183.23 22.0478 1187.91 23.1845L1187.21 26.1023C1182.6 24.9851 1178.07 24.0874 1173.6 23.3985L1174.05 20.431ZM1132.15 22.9598C1127.54 23.6041 1123.01 24.4795 1118.57 25.5717L1117.85 22.6569C1122.39 21.5407 1127.02 20.646 1131.74 19.9873L1132.15 22.9598ZM392.893 16.1482C388.806 17.9557 384.696 19.9568 380.562 22.1585L379.153 19.5085C383.349 17.2737 387.525 15.2403 391.68 13.4024L392.893 16.1482ZM1145.84 18.7454C1150.48 18.5722 1155.19 18.6254 1159.99 18.9164L1159.8 21.9123C1155.11 21.6272 1150.49 21.5757 1145.95 21.7452L1145.84 18.7454ZM513.734 13.1112C517.956 14.9542 522.149 16.9756 526.312 19.1656L524.916 21.8224C520.816 19.6647 516.688 17.6755 512.535 15.8628L513.734 13.1112ZM418.787 7.1546C414.436 8.25162 410.057 9.56453 405.65 11.1013L404.663 8.26658C409.151 6.70135 413.615 5.36282 418.054 4.24371L418.787 7.1546ZM487.319 4.08052C491.819 5.1924 496.287 6.51535 500.722 8.03793L499.748 10.8765C495.394 9.38165 491.011 8.08526 486.601 6.99532L487.319 4.08052ZM445.851 3.02913C441.339 3.267 436.796 3.73199 432.224 4.43229L431.77 1.46473C436.44 0.749447 441.081 0.274391 445.693 0.0312684L445.851 3.02913ZM459.686 0C464.358 0.225082 468.998 0.684017 473.605 1.36799L473.165 4.33751C468.654 3.66785 464.113 3.21808 459.542 2.99786L459.686 0Z" fill="#B3B3B3"/>
</svg>
