<svg width="61" height="64" viewBox="0 0 61 64" fill="none" xmlns="http://www.w3.org/2000/svg">
<path d="M53.375 26.6667C53.375 45.3334 30.5 61.3334 30.5 61.3334C30.5 61.3334 7.625 45.3334 7.625 26.6667C7.625 20.3016 10.035 14.1971 14.3249 9.69619C18.6148 5.19531 24.4332 2.66675 30.5 2.66675C36.5668 2.66675 42.3852 5.19531 46.6751 9.69619C50.965 14.1971 53.375 20.3016 53.375 26.6667Z" stroke="#B3B3B3" stroke-width="3" stroke-linecap="round" stroke-linejoin="round"/>
<path d="M30.5 34.6667C34.7112 34.6667 38.125 31.085 38.125 26.6667C38.125 22.2485 34.7112 18.6667 30.5 18.6667C26.2888 18.6667 22.875 22.2485 22.875 26.6667C22.875 31.085 26.2888 34.6667 30.5 34.6667Z" stroke="#B3B3B3" stroke-width="3" stroke-linecap="round" stroke-linejoin="round"/>
</svg>
