<svg width="64" height="64" viewBox="0 0 64 64" fill="none" xmlns="http://www.w3.org/2000/svg">
<rect width="64" height="64" fill="#FADF4B"/>
<path d="M47 30.62V32C46.9982 35.2347 45.9508 38.3821 44.014 40.9728C42.0773 43.5635 39.3549 45.4588 36.253 46.3759C33.1511 47.293 29.8359 47.1829 26.8017 46.0619C23.7675 44.9409 21.177 42.8692 19.4164 40.1556C17.6559 37.4421 16.8197 34.2321 17.0325 31.0045C17.2453 27.7769 18.4958 24.7045 20.5974 22.2457C22.699 19.7868 25.5392 18.0731 28.6943 17.3603C31.8494 16.6474 35.1504 16.9735 38.105 18.29" stroke="#1D2C34" stroke-width="2" stroke-linecap="round" stroke-linejoin="round"/>
<path d="M47 20L32 35.015L27.5 30.515" stroke="#1D2C34" stroke-width="2" stroke-linecap="round" stroke-linejoin="round"/>
</svg>
