<svg width="186" height="360" viewBox="0 0 186 360" fill="none" xmlns="http://www.w3.org/2000/svg">
<path fill-rule="evenodd" clip-rule="evenodd" d="M183.155 71.6147L184.849 80.445C184.953 80.9868 184.598 81.5104 184.056 81.6144L175.226 83.3088C174.685 83.4128 174.161 83.0578 174.057 82.516C173.953 81.9741 174.308 81.4505 174.85 81.3465L181.311 80.1066L79.91 11.3519L81.0312 9.69813L182.432 78.4528L181.193 71.9912C181.089 71.4493 181.444 70.9258 181.985 70.8218C182.527 70.7178 183.051 71.0728 183.155 71.6147Z" fill="#FADF4B"/>
<path d="M181.988 69.6792C182.992 69.5903 183.926 70.2232 184.215 71.1893L184.267 71.4013L185.962 80.232C186.183 81.3879 185.426 82.5053 184.27 82.7272L175.44 84.4209C174.284 84.6428 173.167 83.8853 172.945 82.7291C172.723 81.573 173.481 80.4557 174.637 80.2339L178.412 79.51L78.3367 11.654L80.7292 8.12517L180.805 75.9812L180.08 72.2047C179.858 71.0485 180.616 69.9313 181.772 69.7095L181.988 69.6792ZM183.155 71.6147C183.051 71.0728 182.527 70.7178 181.985 70.8218C181.444 70.9258 181.089 71.4493 181.193 71.9912L182.432 78.4528L81.0312 9.69813L79.91 11.3519L181.311 80.1066L174.85 81.3465C174.308 81.4505 173.953 81.9741 174.057 82.516C174.161 83.0578 174.685 83.4128 175.226 83.3088L184.056 81.6144C184.598 81.5104 184.953 80.9868 184.849 80.445L183.155 71.6147Z" fill="black"/>
<path fill-rule="evenodd" clip-rule="evenodd" d="M144.704 212.366L140.275 220.19C140.003 220.67 139.394 220.839 138.913 220.567L131.089 216.138C130.609 215.866 130.44 215.256 130.712 214.776C130.984 214.296 131.594 214.127 132.074 214.399L137.799 217.64L79.9186 9.44186L81.8441 8.90844L139.724 217.107L142.966 211.381C143.238 210.901 143.847 210.732 144.327 211.004C144.807 211.276 144.976 211.886 144.704 212.366Z" fill="#FADF4B"/>
<path d="M145.07 210.136C145.892 210.719 146.194 211.806 145.788 212.729L145.69 212.924L141.26 220.748C140.68 221.772 139.379 222.133 138.355 221.553L130.532 217.123C129.508 216.543 129.147 215.243 129.727 214.218C130.307 213.194 131.608 212.833 132.632 213.413L135.974 215.305L78.524 8.65284L82.6325 7.51464L140.085 214.172L141.98 210.824C142.56 209.799 143.861 209.439 144.885 210.019L145.07 210.136ZM144.704 212.366C144.976 211.886 144.807 211.276 144.327 211.004C143.847 210.732 143.238 210.901 142.966 211.381L139.724 217.107L81.8441 8.90844L79.9186 9.44186L137.799 217.64L132.074 214.399C131.594 214.127 130.984 214.296 130.712 214.776C130.44 215.256 130.609 215.866 131.089 216.138L138.913 220.567C139.394 220.839 140.003 220.67 140.275 220.19L144.704 212.366Z" fill="black"/>
<path fill-rule="evenodd" clip-rule="evenodd" d="M15.1236 353.783L7.59901 358.704C7.13726 359.006 6.51814 358.877 6.21617 358.415L1.29525 350.89C0.993279 350.428 1.1228 349.809 1.58455 349.507C2.04629 349.205 2.66541 349.335 2.96739 349.796L6.56829 355.303L75.2298 7.60673L77.1854 8.01588L8.52392 355.712L14.0301 352.111C14.4918 351.809 15.111 351.938 15.4129 352.4C15.7149 352.862 15.5854 353.481 15.1236 353.783Z" fill="#FADF4B"/>
<path d="M16.471 351.968C16.9348 352.864 16.7037 353.968 15.92 354.602L15.7436 354.731L8.21866 359.652C7.23346 360.296 5.91228 360.02 5.26803 359.035L0.347833 351.51C-0.296462 350.524 -0.020079 349.203 0.96513 348.559C1.9503 347.915 3.27152 348.191 3.91576 349.176L5.99537 352.356L74.341 6.26351L78.5139 7.13657L10.1564 353.291L13.4103 351.163C14.3955 350.518 15.7166 350.795 16.3609 351.78L16.471 351.968ZM15.1236 353.783C15.5854 353.481 15.7149 352.862 15.4129 352.4C15.111 351.938 14.4918 351.809 14.0301 352.111L8.52392 355.712L77.1854 8.01588L75.2298 7.60673L6.56829 355.303L2.96739 349.796C2.66541 349.335 2.04629 349.205 1.58455 349.507C1.1228 349.809 0.993279 350.428 1.29525 350.89L6.21617 358.415C6.51814 358.877 7.13726 359.006 7.59901 358.704L15.1236 353.783Z" fill="black"/>
<path d="M84.5989 8.2615C84.5989 12.1986 81.4074 15.3903 77.4706 15.3903C73.5337 15.3903 70.3422 12.1986 70.3422 8.2615C70.3422 4.32438 73.5337 1.1327 77.4706 1.1327C81.4074 1.1327 84.5989 4.32438 84.5989 8.2615Z" fill="#FADF4B"/>
<path d="M84.5989 8.2615C84.5989 4.44746 81.6038 1.33346 77.8375 1.14246L77.4706 1.1327C73.5337 1.1327 70.3422 4.32438 70.3422 8.2615L70.3519 8.62846C70.5368 12.2736 73.4589 15.1961 77.1039 15.3808L77.4706 15.3903C81.2843 15.3902 84.3984 12.395 84.5894 8.62846L84.5989 8.2615ZM85.7318 8.26162C85.7317 12.8242 82.0329 16.5232 77.4707 16.5232C72.9084 16.5232 69.2096 12.8242 69.2096 8.26162C69.2096 3.69899 72.9083 0 77.4707 0C82.033 6.59089e-05 85.7318 3.69903 85.7318 8.26162Z" fill="black"/>
</svg>
