<svg width="44" height="76" viewBox="0 0 44 76" fill="none" xmlns="http://www.w3.org/2000/svg">
<path fill-rule="evenodd" clip-rule="evenodd" d="M4.00941 1.80518C4.18263 1.28524 4.74885 1.00276 5.27409 1.17424L13.8333 3.96865C14.3585 4.14013 14.6439 4.70064 14.4707 5.22057C14.2974 5.74051 13.7312 6.02299 13.206 5.85152L6.94275 3.80669L42.4748 73.5987L40.6863 74.491L5.15423 4.69898L3.08857 10.899C2.91534 11.419 2.34913 11.7015 1.82389 11.53C1.29866 11.3585 1.0133 10.798 1.18652 10.2781L4.00941 1.80518Z" fill="#FADF4B"/>
<path d="M3.01058 1.25091C3.42259 0.33761 4.43158 -0.165961 5.41827 0.0495279L5.62951 0.106644L14.1884 2.90148C15.3091 3.26735 15.9183 4.46307 15.5488 5.57241C15.1792 6.6817 13.9712 7.28471 12.8506 6.919L9.19019 5.72343L44 74.0968L40.1831 76L5.37328 7.62667L4.16651 11.2511C3.79686 12.3604 2.58894 12.9635 1.46837 12.5977C0.347686 12.2319 -0.261557 11.0352 0.108051 9.92585L2.93137 1.45324L3.01058 1.25091ZM5.27409 1.17424C4.74885 1.00276 4.18263 1.28524 4.00941 1.80518L1.18652 10.2781C1.0133 10.798 1.29866 11.3585 1.82389 11.53C2.34913 11.7015 2.91534 11.419 3.08857 10.899L5.15423 4.69898L40.6863 74.491L42.4748 73.5987L6.94275 3.80669L13.206 5.85152C13.7312 6.02299 14.2974 5.74051 14.4707 5.22057C14.6439 4.70064 14.3585 4.14013 13.8333 3.96865L5.27409 1.17424Z" fill="black"/>
</svg>
